HIERARCHY
ROOT Bip001_Pelvis
{
  OFFSET 34.4345 95.6767 -26.8758
  CHANNELS 6 Xposition Yposition Zposition Zrotation Xrotation Yrotation
  JOINT Bip001_Spine
  {
    OFFSET 1.4188e-005 10.2191 -0.0116013
    CHANNELS 3 Zrotation Xrotation Yrotation
    JOINT Bip001_L_Thigh
    {
      OFFSET 11.0458 -10.2192 0.0116197
      CHANNELS 3 Zrotation Xrotation Yrotation
      JOINT Bip001_L_Calf
      {
        OFFSET -0.707118 -44.0221 0.360014
        CHANNELS 3 Zrotation Xrotation Yrotation
        JOINT Bip001_L_Foot
        {
          OFFSET -0.651902 -40.5938 -3.56146
          CHANNELS 3 Zrotation Xrotation Yrotation
          JOINT Bip001_L_Toe0
          {
            OFFSET 0.0530839 -10.2181 13.1504
            CHANNELS 3 Zrotation Xrotation Yrotation
            End Site
            {
              OFFSET -1.02532e-005 0 7.55606
            }
          }
        }
      }
    }
    JOINT Bip001_R_Thigh
    {
      OFFSET -11.0458 -10.2191 0.0115893
      CHANNELS 3 Zrotation Xrotation Yrotation
      JOINT Bip001_R_Calf
      {
        OFFSET 0.706994 -44.0221 0.35984
        CHANNELS 3 Zrotation Xrotation Yrotation
        JOINT Bip001_R_Foot
        {
          OFFSET 0.651786 -40.5938 -3.5613
          CHANNELS 3 Zrotation Xrotation Yrotation
          JOINT Bip001_R_Toe0
          {
            OFFSET -0.0531479 -10.2181 13.1504
            CHANNELS 3 Zrotation Xrotation Yrotation
            End Site
            {
              OFFSET -1.02894e-005 0 7.55606
            }
          }
        }
      }
    }
    JOINT Bip001_Spine1
    {
      OFFSET 1.87041e-005 14.5736 1.08638
      CHANNELS 3 Zrotation Xrotation Yrotation
      JOINT Bip001_Spine2
      {
        OFFSET 2.24614e-005 14.5058 -1.69078
        CHANNELS 3 Zrotation Xrotation Yrotation
        JOINT Bip001_Neck
        {
          OFFSET 2.20278e-005 15.3945 -0.489414
          CHANNELS 3 Zrotation Xrotation Yrotation
          JOINT Bip001_L_Clavicle
          {
            OFFSET 6.06036 -0.000579998 0.00836775
            CHANNELS 3 Zrotation Xrotation Yrotation
            JOINT Bip001_L_UpperArm
            {
              OFFSET 11.5509 -0.0600302 0.00193952
              CHANNELS 3 Zrotation Xrotation Yrotation
              JOINT Bip001_L_Forearm
              {
                OFFSET 25.9523 0.0806089 -2.15551
                CHANNELS 3 Zrotation Xrotation Yrotation
                JOINT Bip001_L_Hand
                {
                  OFFSET 32.2475 0.153767 1.63968
                  CHANNELS 3 Zrotation Xrotation Yrotation
                  JOINT Bip001_L_Finger0
                  {
                    OFFSET 6.04639 -2.20976 5.90322
                    CHANNELS 3 Zrotation Xrotation Yrotation
                    End Site
                    {
                      OFFSET 4.22375 -1.43895 0.606485
                    }
                  }
                  JOINT Bip001_L_Finger1
                  {
                    OFFSET 11.0826 -0.704819 -0.198153
                    CHANNELS 3 Zrotation Xrotation Yrotation
                    End Site
                    {
                      OFFSET 6.20027 -0.397518 -0.0787166
                    }
                  }
                }
              }
            }
          }
          JOINT Bip001_R_Clavicle
          {
            OFFSET -6.06037 -0.000563197 0.00835105
            CHANNELS 3 Zrotation Xrotation Yrotation
            JOINT Bip001_R_UpperArm
            {
              OFFSET -11.5509 -0.0599978 0.00190698
              CHANNELS 3 Zrotation Xrotation Yrotation
              JOINT Bip001_R_Forearm
              {
                OFFSET -25.9523 0.0806822 -2.15589
                CHANNELS 3 Zrotation Xrotation Yrotation
                JOINT Bip001_R_Hand
                {
                  OFFSET -32.2475 0.153859 1.63989
                  CHANNELS 3 Zrotation Xrotation Yrotation
                  JOINT Bip001_R_Finger0
                  {
                    OFFSET -6.04641 -2.20976 5.90317
                    CHANNELS 3 Zrotation Xrotation Yrotation
                    End Site
                    {
                      OFFSET -4.22376 -1.43895 0.60647
                    }
                  }
                  JOINT Bip001_R_Finger1
                  {
                    OFFSET -11.0826 -0.704794 -0.198182
                    CHANNELS 3 Zrotation Xrotation Yrotation
                    End Site
                    {
                      OFFSET -6.20028 -0.397504 -0.0787333
                    }
                  }
                }
              }
            }
          }
          JOINT Bip001_Head
          {
            OFFSET 1.09673e-005 11.2744 2.05948
            CHANNELS 3 Zrotation Xrotation Yrotation
            End Site
            {
              OFFSET 2.89576e-005 20.8808 -2.77728e-005
            }
          }
        }
      }
    }
  }
}
MOTION
Frames:	9
Frame Time:	0.04
33.2724 95.7117 -29.9108 -0.910119 -1.55592 -9.17604 0.0573076 2.25827 -0.269435 5.79189 0.923683 15.2216 0.255532 7.98513 2.40421 1.04565 -5.36526 0.0410516 1.29171 -4.52737 -0.67372 -3.09071 -4.83141 2.75933 0.00835002 12.1611 0.866042 -6.01829 -8.11154 0.406289 2.24224 -8.0904 3.04272 0.125345 4.5088 -0.541766 0.125345 4.50881 -0.541766 8.72565 -2.7102 1.04633 -31.7939 6.6125 -8.71421 -46.54 33.691 -6.36535 13.1863 -4.21065 -39.041 11.0065 -0.14205 -7.06526 3.18055e-015 4.77083e-015 -3.18055e-015 3.18055e-015 -1.59028e-015 -4.77083e-015 16.705 4.84012 2.78024 59.1808 -4.48056 -1.96016 -15.8264 56.5051 17.0742 -4.76254 -4.16123 8.96207 -7.95139e-016 9.54166e-015 7.95139e-016 -1.76556e-031 1.27222e-014 7.95139e-016 -11.4471 -5.29402 5.48331 
33.3807 95.7379 -29.9398 -0.886303 -1.56586 -8.26711 -0.0227148 2.27384 -0.236373 5.879 0.747976 15.6702 0.317714 7.89677 1.20209 1.03727 -5.33025 0.0410493 1.38118 -4.57737 -0.790534 -3.06483 -4.5308 2.45286 -0.00629062 11.8003 0.82509 -6.08473 -7.87825 -0.0518265 2.26619 -8.15194 3.04386 -0.0360454 4.54772 -0.472399 -0.0360456 4.54774 -0.472402 8.82976 -2.97181 1.0638 -31.2642 6.76805 -8.59365 -47.4964 34.7456 -5.62297 14.0703 -3.34957 -38.5659 11.1481 -0.059254 -7.10252 6.36111e-015 6.36111e-015 1.59028e-015 -8.82782e-032 1.59028e-015 3.18055e-015 17.1889 4.86108 1.88678 59.1802 -4.93531 -2.54293 -16.4471 55.8317 18.8602 -2.74572 -4.34835 10.0766 -4.41391e-032 3.18055e-015 7.95139e-016 -8.82782e-032 6.36111e-015 7.95139e-016 -11.3245 -5.26731 5.49457 
33.445 95.7578 -29.9407 -0.963813 -1.81998 -7.81596 -0.0313798 2.36055 -0.242999 6.13052 0.82775 16.5228 0.173311 8.07403 0.171672 0.0598059 -6.04487 0.0436536 0.952383 -3.87726 -0.591697 -3.00991 -4.10819 2.47204 -0.0641487 11.4379 0.5889 -6.04239 -7.69884 -0.180795 2.26751 -8.173 3.04745 -0.0528671 4.72123 -0.485312 -0.0528672 4.72128 -0.48531 8.50025 -2.91926 1.40978 -30.7991 6.82822 -8.73639 -48.6598 35.9217 -4.35547 15.3083 -1.62901 -36.8353 11.7564 0.203485 -7.29489 -2.20695e-031 -7.95139e-015 -1.59028e-015 2.64834e-031 -4.77083e-015 3.18055e-015 17.8862 4.63854 1.32274 58.9164 -5.11109 -2.57638 -16.5408 53.806 19.6762 -2.41888 -4.89321 11.2407 7.95139e-016 6.36111e-015 -1.59028e-015 7.95139e-016 6.36111e-015 -7.95139e-016 -10.9295 -5.41647 5.66305 
33.4881 95.7772 -30.0983 -1.2273 -1.62673 -7.25446 0.0703956 2.37743 -0.410815 6.43171 0.0947383 15.4154 0.10095 8.82212 1.06451 -0.130528 -6.43266 0.0488153 0.969707 -3.62566 -0.574292 -2.89142 -4.00684 2.41222 0.105157 10.8314 0.574779 -6.0873 -7.36514 -0.500726 2.2523 -8.09741 3.01699 0.15807 4.75428 -0.825612 0.15807 4.7543 -0.825615 8.25943 -3.07489 2.13247 -30.7336 7.30837 -9.09724 -49.765 36.7821 -2.71883 16.8997 0.8321 -34.5048 10.6878 0.717699 -6.61668 -6.36111e-015 -3.18055e-015 -1.59028e-015 -3.18055e-015 -1.59028e-015 1.59028e-015 18.2581 4.69451 1.011 58.5797 -4.93325 -1.91242 -15.6812 50.2907 18.3953 -3.18492 -5.35872 11.4275 -1.59028e-015 3.18055e-015 3.18055e-015 -1.59028e-015 9.54167e-015 3.18055e-015 -11.1299 -5.1104 6.35418 
33.5523 95.7944 -30.1909 -1.38659 -1.52032 -7.29244 0.144054 2.39273 -0.508561 6.45978 -0.0761638 15.0397 0.0291 8.80492 1.34732 0.708937 -5.95271 0.0497889 1.21327 -4.15529 -0.723616 -2.84954 -3.92931 2.42709 0.120987 10.2912 0.530392 -5.93198 -7.10793 -0.365087 2.25698 -8.13652 3.04219 0.310164 4.78712 -1.02488 0.30998 4.78708 -1.0247 7.51107 -3.07964 2.8567 -30.224 7.62362 -9.45232 -50.5581 38.3732 -1.401 16.658 2.11909 -31.4491 9.71056 1.32633 -5.91397 4.41391e-032 1.59028e-015 -1.59028e-015 -8.82782e-032 3.18056e-015 1.59028e-015 19.0243 4.59446 0.820984 58.081 -4.44573 -1.43809 -15.077 45.7342 17.0214 -4.56729 -6.25165 11.147 -7.95139e-016 6.36111e-015 1.59028e-015 7.95139e-016 6.36111e-015 3.18055e-015 -10.6867 -4.8831 6.79555 
33.6525 95.7994 -30.2098 -1.36446 -1.53818 -7.5743 0.162152 2.3936 -0.529242 6.32471 0.105628 15.332 0.00512939 8.57447 1.34692 0.710614 -5.96599 0.0507094 1.2341 -4.18029 -0.727033 -3.02177 -3.80391 2.39785 0.14789 9.9444 0.435394 -5.72019 -7.09529 0.0194817 2.25886 -8.1461 3.05458 0.343545 4.78811 -1.06711 0.345201 4.78808 -1.06675 6.6876 -2.65291 3.43184 -29.4728 7.46596 -9.95493 -51.2668 40.6399 -0.715729 15.8169 3.49607 -27.0666 8.74007 1.80409 -4.66565 3.18055e-015 -6.36111e-015 -2.38542e-015 6.36111e-015 -6.36111e-015 -1.59028e-015 19.9229 3.99278 0.538671 57.2824 -3.70518 -1.45751 -15.2272 41.8562 16.6242 -6.88291 -7.43394 9.88487 1.59028e-015 -1.27222e-014 -1.59028e-015 -8.82782e-031 -1.59028e-014 -3.18055e-015 -10.0963 -4.98037 7.05127 
33.7045 95.8066 -30.2659 -1.48169 -1.40103 -7.52946 0.223517 2.37723 -0.574974 6.38684 -0.109925 15.0858 -0.0410755 8.71331 1.52914 0.921016 -5.94137 0.0515545 1.26228 -4.2798 -0.725643 -3.01937 -3.6037 2.38393 0.177013 9.27327 0.283012 -5.54879 -6.90864 0.165528 2.26707 -8.19107 3.09591 0.472896 4.75203 -1.16014 0.472245 4.75204 -1.16051 5.83315 -2.5445 3.93787 -28.5893 7.52422 -10.2873 -52.4039 42.7287 -0.193329 14.5191 4.074 -22.25 7.14953 1.79219 -3.64868 3.18055e-015 -3.18055e-015 -3.97569e-015 3.18055e-015 -1.59028e-015 -2.38542e-015 21.0282 3.71857 0.293115 56.0531 -3.64237 -2.52678 -17.3277 38.3388 18.5154 -8.14692 -8.72548 9.50431 1.59028e-015 3.18055e-015 4.77083e-015 -7.95139e-016 9.54167e-015 1.59028e-015 -9.52908 -4.91331 7.21842 
33.7521 95.8481 -30.3206 -1.53368 -1.33322 -7.24753 0.2687 2.36431 -0.624908 6.48475 -0.158415 14.7521 -0.29277 8.59024 1.68616 0.92259 -5.93956 0.0523567 1.22678 -4.20176 -0.71279 -3.06594 -3.23252 2.26658 0.196624 8.4705 0.165898 -5.38672 -6.61524 0.253472 2.27696 -8.18509 3.05341 0.562568 4.7113 -1.26251 0.56357 4.71131 -1.26247 5.16519 -2.34901 4.37527 -27.8673 7.50737 -10.7392 -53.987 43.9034 1.04232 13.3661 3.5239 -18.4902 5.78897 2.15779 -2.60081 -3.18055e-015 -1.59028e-015 1.59028e-015 4.41391e-032 -3.18056e-015 7.95139e-016 21.718 3.29041 -0.1509 55.2423 -3.78065 -4.48282 -20.891 34.8121 21.6965 -9.43932 -8.71483 9.38118 -7.95139e-016 3.18055e-015 4.77083e-015 -2.38542e-015 3.18056e-015 4.77083e-015 -9.16346 -5.03079 7.40177 
33.7978 95.8557 -30.3195 -1.55785 -1.50139 -6.97475 0.267594 2.37042 -0.597338 6.54047 -0.0947598 14.5282 -0.372535 8.69986 1.63323 0.67998 -6.20386 0.0531669 1.09437 -4.00012 -0.605427 -3.11359 -2.77915 2.03962 0.201016 7.99474 0.0625415 -5.27811 -6.52505 0.38527 2.31098 -8.24409 3.02268 0.560984 4.73789 -1.2075 0.561282 4.73789 -1.20746 4.62459 -2.27048 4.63761 -27.0416 7.45566 -10.9508 -55.8786 44.4998 2.62672 13.0629 3.12165 -15.9606 3.64467 2.82067 -0.735802 1.59028e-015 0 -0 4.41391e-032 3.18056e-015 -7.95139e-016 22.4236 2.95415 -0.725629 55.1415 -5.15555 -7.53346 -28.1877 30.2527 27.1168 -10.3751 -7.97026 9.29178 -7.15625e-015 3.18055e-015 -0 -8.74652e-015 3.18056e-015 -0 -8.74026 -5.2747 7.42038 
